<svg width="26" height="26" viewBox="0 0 26 26" fill="none" xmlns="http://www.w3.org/2000/svg">
<path d="M25 12.3333C25.0046 14.0931 24.5934 15.8292 23.8 17.4C22.8592 19.2823 21.413 20.8655 19.6233 21.9724C17.8335 23.0792 15.771 23.6658 13.6667 23.6666C11.9068 23.6712 10.1708 23.2601 8.6 22.4666L1 25L3.53333 17.4C2.73991 15.8292 2.32874 14.0931 2.33333 12.3333C2.33415 10.229 2.92082 8.16645 4.02762 6.37671C5.13443 4.58698 6.71767 3.14073 8.6 2.19998C10.1708 1.40655 11.9068 0.995389 13.6667 0.999977H14.3333C17.1125 1.1533 19.7374 2.32633 21.7055 4.29446C23.6736 6.26259 24.8467 8.88751 25 11.6666V12.3333Z" stroke="#5E49FF" stroke-width="1.5" stroke-linecap="round" stroke-linejoin="round"/>
</svg>
